<svg width="16" height="13" viewBox="0 0 16 13" fill="none" xmlns="http://www.w3.org/2000/svg">
<path d="M7.96208 8.56348C5.453 8.56348 3.33594 9.0215 3.33594 10.7892C3.33594 12.5577 5.46667 12.9996 7.96208 12.9996C10.4712 12.9996 12.5882 12.5416 12.5882 10.7739C12.5882 9.00541 10.4575 8.56348 7.96208 8.56348Z" fill="white"/>
<path opacity="0.4" d="M7.96364 6.87918C9.66263 6.87918 11.0249 5.34853 11.0249 3.43959C11.0249 1.52993 9.66263 0 7.96364 0C6.26466 0 4.90234 1.52993 4.90234 3.43959C4.90234 5.34853 6.26466 6.87918 7.96364 6.87918Z" fill="white"/>
<path opacity="0.4" d="M14.61 4.24063C15.0496 2.30901 13.7609 0.574219 12.1198 0.574219C11.9414 0.574219 11.7708 0.596169 11.6041 0.633484C11.5819 0.639338 11.5572 0.651776 11.5442 0.673726C11.5292 0.70153 11.5403 0.738845 11.5565 0.76299C12.0495 1.54003 12.3328 2.48608 12.3328 3.50164C12.3328 4.47476 12.073 5.38204 11.6171 6.13493C11.5702 6.21249 11.6119 6.31712 11.6946 6.33321C11.8092 6.35589 11.9264 6.3676 12.0463 6.37126C13.2412 6.40638 14.3137 5.54227 14.61 4.24063Z" fill="white"/>
<path d="M15.8621 8.78784C15.6433 8.26396 15.1152 7.90471 14.3122 7.72838C13.9332 7.62448 12.9076 7.47815 11.9536 7.4979C11.9393 7.5001 11.9314 7.51107 11.9301 7.51839C11.9282 7.52863 11.9321 7.54619 11.951 7.55717C12.3918 7.80228 14.096 8.86832 13.8818 11.1168C13.8727 11.2141 13.9424 11.2982 14.029 11.2836C14.4483 11.2163 15.5274 10.9558 15.8621 10.1444C16.047 9.7156 16.047 9.21733 15.8621 8.78784Z" fill="white"/>
<path opacity="0.4" d="M4.39713 0.633484C4.23107 0.595437 4.05981 0.574219 3.88138 0.574219C2.24035 0.574219 0.951619 2.30901 1.39183 4.24063C1.68748 5.54227 2.76001 6.40638 3.95496 6.37126C4.07478 6.3676 4.19265 6.35516 4.30661 6.33321C4.38931 6.31712 4.43099 6.21249 4.3841 6.13493C3.92826 5.38131 3.66843 4.47476 3.66843 3.50164C3.66843 2.48535 3.95236 1.53929 4.44532 0.76299C4.46095 0.738845 4.47267 0.70153 4.45704 0.673726C4.44402 0.651044 4.41992 0.639338 4.39713 0.633484Z" fill="white"/>
<path d="M1.6884 7.72875C0.885472 7.90509 0.357998 8.26434 0.139194 8.78822C-0.0463981 9.21771 -0.0463981 9.71598 0.139194 10.1455C0.473912 10.9562 1.55295 11.2174 1.97233 11.284C2.05894 11.2986 2.12797 11.2152 2.11885 11.1171C1.9046 8.86943 3.6088 7.80338 4.05031 7.55827C4.06855 7.54657 4.07245 7.52974 4.0705 7.51876C4.0692 7.51145 4.06204 7.50047 4.04771 7.49901C3.09305 7.47852 2.06805 7.62486 1.6884 7.72875Z" fill="white"/>
</svg>
