<svg width="20" height="22" viewBox="0 0 20 22" fill="none" xmlns="http://www.w3.org/2000/svg">
<path d="M19.0373 13.5692L17.3733 12.5397C17.5412 11.5687 17.5412 10.5726 17.3733 9.6016L19.0373 8.57203C19.2287 8.45484 19.3147 8.21209 19.2522 7.98609C18.8186 6.49613 18.0803 5.14848 17.1155 4.02683C16.967 3.85523 16.7248 3.81338 16.5373 3.93056L14.8733 4.96014C14.1741 4.31561 13.3694 3.81756 12.4983 3.49111V1.43614C12.4983 1.20177 12.3459 0.996691 12.1311 0.946468C10.6975 0.603276 9.22875 0.620017 7.86547 0.946468C7.65063 0.996691 7.49828 1.20177 7.49828 1.43614V3.4953C6.6311 3.82593 5.82641 4.32398 5.12328 4.96433L3.46313 3.93475C3.27172 3.81756 3.03344 3.85523 2.885 4.03101C1.92016 5.14848 1.18188 6.49613 0.748286 7.99027C0.68188 8.21628 0.771723 8.45902 0.96313 8.57621L2.62719 9.60579C2.45922 10.5768 2.45922 11.5729 2.62719 12.5438L0.96313 13.5734C0.771723 13.6906 0.685786 13.9334 0.748286 14.1594C1.18188 15.6493 1.92016 16.997 2.885 18.1186C3.03344 18.2902 3.27563 18.3321 3.46313 18.2149L5.12719 17.1853C5.82641 17.8298 6.6311 18.3279 7.50219 18.6543V20.7135C7.50219 20.9479 7.65453 21.1529 7.86938 21.2032C9.30297 21.5464 10.7717 21.5296 12.135 21.2032C12.3498 21.1529 12.5022 20.9479 12.5022 20.7135V18.6543C13.3694 18.3237 14.1741 17.8257 14.8772 17.1853L16.5412 18.2149C16.7327 18.3321 16.9709 18.2944 17.1194 18.1186C18.0842 17.0012 18.8225 15.6535 19.2561 14.1594C19.3147 13.9292 19.2287 13.6864 19.0373 13.5692ZM9.99828 14.4188C8.27563 14.4188 6.87328 12.9163 6.87328 11.0706C6.87328 9.22493 8.27563 7.72242 9.99828 7.72242C11.7209 7.72242 13.1233 9.22493 13.1233 11.0706C13.1233 12.9163 11.7209 14.4188 9.99828 14.4188Z" fill="white"/>
</svg>
