<svg width="16" height="16" viewBox="0 0 16 16" fill="none" xmlns="http://www.w3.org/2000/svg">
<path d="M5.59472 15.0257V12.5722C5.59471 11.9505 6.12688 11.4454 6.78605 11.4415H9.20641C9.86853 11.4415 10.4053 11.9477 10.4053 12.5722V15.0186C10.4053 15.5578 10.8665 15.9961 11.4383 16H13.0895C13.8607 16.0019 14.6011 15.7142 15.1471 15.2006C15.6931 14.6869 16 13.9894 16 13.262V6.29268C16 5.70511 15.7238 5.14777 15.246 4.7708L9.63619 0.539415C8.65559 -0.200702 7.25505 -0.176793 6.30349 0.596307L0.814326 4.7708C0.313887 5.13666 0.0147809 5.69565 0 6.29268V13.2549C0 14.771 1.30306 16 2.91046 16H4.52403C4.7993 16.0019 5.06399 15.9001 5.25935 15.7171C5.4547 15.5342 5.56457 15.2853 5.56456 15.0257H5.59472Z" fill="#7DD78D"/>
</svg>
