<svg width="20" height="20" viewBox="0 0 20 20" fill="none" xmlns="http://www.w3.org/2000/svg">
<path fill-rule="evenodd" clip-rule="evenodd" d="M8.75738 0.514768L8.09162 1.18052C7.86976 1.40239 7.54625 1.4889 7.24271 1.40768L6.33391 1.16419C5.39625 0.912899 4.43216 1.46963 4.18131 2.40681L3.93738 3.31607C3.85601 3.6193 3.61929 3.85603 3.31607 3.93738L2.40681 4.18132C1.46961 4.43217 0.912895 5.3963 1.16419 6.33391L1.40768 7.24271C1.4889 7.54624 1.40239 7.86975 1.18052 8.09163L0.514768 8.75739C-0.171589 9.44374 -0.171589 10.5563 0.514768 11.2426L1.18052 11.9084C1.40239 12.1303 1.4889 12.4538 1.40768 12.7573L1.16419 13.6661C0.912898 14.6038 1.46963 15.5679 2.40681 15.8187L3.31607 16.0626C3.61929 16.144 3.85602 16.3807 3.93738 16.684L4.18131 17.5932C4.43217 18.5304 5.39629 19.0871 6.33391 18.8358L7.24271 18.5923C7.54623 18.5111 7.86974 18.5976 8.09162 18.8195L8.75738 19.4853C9.44374 20.1716 10.5563 20.1716 11.2426 19.4853L11.9084 18.8195C12.1302 18.5976 12.4538 18.5111 12.7573 18.5923L13.6661 18.8358C14.6037 19.0871 15.5678 18.5304 15.8187 17.5932L16.0626 16.684C16.144 16.3807 16.3807 16.144 16.6839 16.0626L17.5932 15.8187C18.5304 15.5678 19.0871 14.6037 18.8358 13.6661L18.5923 12.7573C18.5111 12.4538 18.5976 12.1303 18.8195 11.9084L19.4852 11.2426C20.1716 10.5563 20.1716 9.44371 19.4852 8.75739L18.8195 8.09163C18.5976 7.86977 18.5111 7.54625 18.5923 7.24271L18.8358 6.33391C19.0871 5.39626 18.5304 4.43216 17.5932 4.18132L16.6839 3.93738C16.3807 3.85602 16.144 3.61929 16.0626 3.31607L15.8187 2.40681C15.5678 1.46961 14.6037 0.912896 13.6661 1.16419L12.7573 1.40768C12.4538 1.4889 12.1303 1.40239 11.9084 1.18052L11.2426 0.514768C10.5563 -0.171589 9.4437 -0.171589 8.75738 0.514768ZM12.6364 10.4393C11.4237 10.4393 10.4394 11.4236 10.4394 12.6364C10.4394 13.8491 11.4237 14.8334 12.6364 14.8334C13.8492 14.8334 14.8335 13.8491 14.8335 12.6364C14.8335 11.4236 13.8492 10.4393 12.6364 10.4393ZM12.6364 11.3181C13.3641 11.3181 13.9547 11.9087 13.9547 12.6364C13.9547 13.364 13.3641 13.9546 12.6364 13.9546C11.9088 13.9546 11.3182 13.364 11.3182 12.6364C11.3182 11.9087 11.9088 11.3181 12.6364 11.3181ZM6.79507 13.8259L13.8259 6.79507C13.9973 6.62367 13.9973 6.34517 13.8259 6.17376C13.6545 6.00235 13.376 6.00236 13.2046 6.17376L6.17376 13.2046C6.00235 13.376 6.00235 13.6545 6.17376 13.8259C6.34516 13.9973 6.62366 13.9973 6.79507 13.8259ZM7.36327 5.16647C6.15052 5.16647 5.16624 6.15075 5.16624 7.3635C5.16624 8.57626 6.15052 9.56054 7.36327 9.56054C8.57603 9.56054 9.56031 8.57626 9.56031 7.3635C9.56031 6.15075 8.57603 5.16647 7.36327 5.16647ZM7.36327 6.04525C8.09095 6.04525 8.68152 6.63583 8.68152 7.3635C8.68152 8.09118 8.09095 8.68176 7.36327 8.68176C6.6356 8.68176 6.04502 8.09118 6.04502 7.3635C6.04502 6.63583 6.6356 6.04525 7.36327 6.04525Z" fill="white"/>
</svg>
