<svg width="16" height="16" viewBox="0 0 16 16" fill="none" xmlns="http://www.w3.org/2000/svg">
<path opacity="0.4" d="M11.4663 16H4.53295C1.82152 16 0 14.0983 0 11.2674V4.73338C0 1.90249 1.82152 0 4.53295 0H11.4671C14.1785 0 16 1.90249 16 4.73338V11.2674C16 14.0983 14.1785 16 11.4663 16Z" fill="white"/>
<path fill-rule="evenodd" clip-rule="evenodd" d="M7.39568 5.33939C7.39568 6.43539 6.50368 7.32739 5.40768 7.32739C4.31088 7.32739 3.41968 6.43539 3.41968 5.33939C3.41968 4.24339 4.31088 3.35059 5.40768 3.35059C6.50368 3.35059 7.39568 4.24339 7.39568 5.33939ZM13.92 9.6702C14.1064 9.851 14.24 10.0574 14.328 10.2774C14.5944 10.943 14.456 11.743 14.1712 12.4022C13.8336 13.187 13.1872 13.7798 12.3728 14.039C12.0112 14.155 11.632 14.2046 11.2536 14.2046H4.54881C3.88161 14.2046 3.29121 14.0494 2.80721 13.7582C2.50401 13.5758 2.45041 13.1558 2.67521 12.8822C3.05121 12.4262 3.42241 11.9686 3.79681 11.507C4.51041 10.6238 4.99121 10.3678 5.52561 10.5926C5.74241 10.6854 5.96001 10.8254 6.18401 10.9726C6.78081 11.3678 7.61041 11.9102 8.70321 11.3214C9.45018 10.9129 9.88379 10.214 10.2612 9.60566L10.2688 9.5934C10.2942 9.55269 10.3194 9.512 10.3445 9.47143C10.4728 9.26406 10.5992 9.05981 10.7424 8.8718C10.92 8.639 11.5792 7.911 12.4312 8.4294C12.9744 8.7558 13.4312 9.1974 13.92 9.6702Z" fill="white"/>
</svg>
