<svg width="16" height="17" viewBox="0 0 16 17" fill="none" xmlns="http://www.w3.org/2000/svg">
<g clip-path="url(#clip0_3841_93338)">
<path d="M8.00065 15.1663C11.6825 15.1663 14.6673 12.1816 14.6673 8.49967C14.6673 4.81778 11.6825 1.83301 8.00065 1.83301C4.31875 1.83301 1.33398 4.81778 1.33398 8.49967C1.33398 12.1816 4.31875 15.1663 8.00065 15.1663Z" stroke="#6D6D6D" stroke-width="2" stroke-linecap="round" stroke-linejoin="round"/>
<path d="M6.06055 6.50038C6.21728 6.05483 6.52665 5.67912 6.93385 5.4398C7.34105 5.20049 7.81981 5.11301 8.28533 5.19285C8.75085 5.2727 9.17309 5.51473 9.47727 5.87607C9.78144 6.2374 9.94792 6.69473 9.94721 7.16705C9.94721 8.50038 7.94721 9.16705 7.94721 9.16705" stroke="white" stroke-linecap="round" stroke-linejoin="round"/>
<path d="M8 11.167V11.5003" stroke="white" stroke-linecap="round" stroke-linejoin="round"/>
</g>
<defs>
<clipPath id="clip0_3841_93338">
<rect width="16" height="16" fill="white" transform="translate(0 0.5)"/>
</clipPath>
</defs>
</svg>
