<svg width="16" height="16" viewBox="0 0 16 16" fill="none" xmlns="http://www.w3.org/2000/svg">
<path d="M11.2613 0H13.9701C15.0919 0 16.0009 0.916681 16.0009 2.04797V4.77962C16.0009 5.91091 15.0919 6.82759 13.9701 6.82759H11.2613C10.1395 6.82759 9.23047 5.91091 9.23047 4.77962V2.04797C9.23047 0.916681 10.1395 0 11.2613 0Z" fill="white"/>
<path fill-rule="evenodd" clip-rule="evenodd" d="M2.03082 0H4.73959C5.86141 0 6.77041 0.916681 6.77041 2.04797V4.77962C6.77041 5.91091 5.86141 6.82759 4.73959 6.82759H2.03082C0.909004 6.82759 0 5.91091 0 4.77962V2.04797C0 0.916681 0.909004 0 2.03082 0ZM2.03082 9.17237H4.73959C5.86141 9.17237 6.77041 10.0891 6.77041 11.2203V13.952C6.77041 15.0825 5.86141 16 4.73959 16H2.03082C0.909004 16 0 15.0825 0 13.952V11.2203C0 10.0891 0.909004 9.17237 2.03082 9.17237ZM13.9692 9.17237H11.2604C10.1386 9.17237 9.22959 10.0891 9.22959 11.2203V13.952C9.22959 15.0825 10.1386 16 11.2604 16H13.9692C15.091 16 16 15.0825 16 13.952V11.2203C16 10.0891 15.091 9.17237 13.9692 9.17237Z" fill="#B7B6B6"/>
</svg>
