<svg width="16" height="18" viewBox="0 0 16 18" fill="none" xmlns="http://www.w3.org/2000/svg">
<path opacity="0.4" d="M14.4083 6.46785C13.9833 6.46785 13.4205 6.45935 12.7197 6.45935C11.0105 6.45935 9.60522 5.1818 9.60522 3.62375V0.89015C9.60522 0.6751 9.41511 0.5 9.17933 0.5H4.20106C1.8778 0.5 0 2.2221 0 4.33265V13.4914C0 15.7057 1.96727 17.5 4.3949 17.5H11.8083C14.1231 17.5 16 15.7889 16 13.6767V6.85035C16 6.63445 15.8108 6.4602 15.5741 6.46105C15.1762 6.4636 14.699 6.46785 14.4083 6.46785Z" fill="white"/>
<path opacity="0.4" d="M11.843 0.981776C11.5616 0.717426 11.0703 0.899326 11.0703 1.26568V3.50713C11.0703 4.44723 11.9277 5.22073 12.9687 5.22073C13.6247 5.22753 14.5357 5.22923 15.3094 5.22753C15.7056 5.22668 15.907 4.79913 15.6322 4.54073C14.6393 3.60828 12.8614 1.93718 11.843 0.981776Z" fill="white"/>
<path fill-rule="evenodd" clip-rule="evenodd" d="M5.15141 8.47854H8.33729C8.72411 8.47854 9.03847 8.19549 9.03847 7.84614C9.03847 7.49679 8.72411 7.21289 8.33729 7.21289H5.15141C4.76458 7.21289 4.45117 7.49679 4.45117 7.84614C4.45117 8.19549 4.76458 8.47854 5.15141 8.47854ZM5.15153 12.724H10.2753C10.6621 12.724 10.9765 12.441 10.9765 12.0916C10.9765 11.7423 10.6621 11.4584 10.2753 11.4584H5.15153C4.76471 11.4584 4.45129 11.7423 4.45129 12.0916C4.45129 12.441 4.76471 12.724 5.15153 12.724Z" fill="white"/>
</svg>
