<svg width="20" height="23" viewBox="0 0 20 23" fill="none" xmlns="http://www.w3.org/2000/svg">
<path d="M17.7778 0.894531H2.22222C1 0.894531 0 1.96596 0 3.27548V19.9421C0 21.2517 1 22.3231 2.22222 22.3231H17.7778C19 22.3231 20 21.2517 20 19.9421V3.27548C20 1.96596 19 0.894531 17.7778 0.894531ZM10 3.27548H11.6667V6.84691L13.8889 3.27548H15.7778L13.5556 6.84691L15.7778 10.4183H13.8889L11.6667 6.84691V10.4183H10V3.27548ZM4.44444 5.95405H7.22222V5.0612H4.44444V3.27548H8.88889V7.73977H6.11111V8.63262H8.88889V10.4183H4.44444V5.95405ZM17.7778 12.7993L11.1111 19.9421L6.66667 15.1802L2.22222 19.9421V16.966L6.66667 12.2041L11.1111 16.966L17.7778 9.8231V12.7993Z" fill="white"/>
</svg>
