<svg width="20" height="16" viewBox="0 0 20 16" fill="none" xmlns="http://www.w3.org/2000/svg">
<path d="M3 7.17857C4.10313 7.17857 5 6.21763 5 5.03571C5 3.8538 4.10313 2.89286 3 2.89286C1.89688 2.89286 1 3.8538 1 5.03571C1 6.21763 1.89688 7.17857 3 7.17857ZM17 7.17857C18.1031 7.17857 19 6.21763 19 5.03571C19 3.8538 18.1031 2.89286 17 2.89286C15.8969 2.89286 15 3.8538 15 5.03571C15 6.21763 15.8969 7.17857 17 7.17857ZM18 8.25H16C15.45 8.25 14.9531 8.48772 14.5906 8.87277C15.85 9.61272 16.7438 10.9487 16.9375 12.5357H19C19.5531 12.5357 20 12.0569 20 11.4643V10.3929C20 9.21094 19.1031 8.25 18 8.25ZM10 8.25C11.9344 8.25 13.5 6.57255 13.5 4.5C13.5 2.42746 11.9344 0.75 10 0.75C8.06563 0.75 6.5 2.42746 6.5 4.5C6.5 6.57255 8.06563 8.25 10 8.25ZM12.4 9.32143H12.1406C11.4906 9.65625 10.7688 9.85714 10 9.85714C9.23125 9.85714 8.5125 9.65625 7.85938 9.32143H7.6C5.6125 9.32143 4 11.0491 4 13.1786V14.1429C4 15.0301 4.67188 15.75 5.5 15.75H14.5C15.3281 15.75 16 15.0301 16 14.1429V13.1786C16 11.0491 14.3875 9.32143 12.4 9.32143ZM5.40938 8.87277C5.04688 8.48772 4.55 8.25 4 8.25H2C0.896875 8.25 0 9.21094 0 10.3929V11.4643C0 12.0569 0.446875 12.5357 1 12.5357H3.05938C3.25625 10.9487 4.15 9.61272 5.40938 8.87277Z" fill="#7DD78D"/>
</svg>
