<svg width="16" height="17" viewBox="0 0 16 17" fill="none" xmlns="http://www.w3.org/2000/svg">
<path d="M8.0105 10.7641C6.65936 10.7641 5.56641 9.76414 5.56641 8.50814C5.56641 7.25214 6.65936 6.24414 8.0105 6.24414C9.36163 6.24414 10.4288 7.25214 10.4288 8.50814C10.4288 9.76414 9.36163 10.7641 8.0105 10.7641Z" fill="white"/>
<path opacity="0.4" d="M15.7727 10.396C15.6092 10.156 15.3769 9.916 15.0757 9.764C14.8347 9.652 14.6798 9.468 14.5421 9.252C14.1032 8.564 14.3614 7.66 15.0929 7.252C15.9535 6.796 16.2289 5.78 15.7297 4.988L15.1531 4.044C14.6626 3.252 13.5868 2.972 12.7348 3.436C11.9775 3.82 11.005 3.564 10.5661 2.884C10.4284 2.66 10.351 2.42 10.3682 2.18C10.394 1.868 10.2907 1.572 10.1358 1.332C9.81742 0.836 9.24082 0.5 8.60398 0.5H7.39054C6.76231 0.516 6.18571 0.836 5.86729 1.332C5.70377 1.572 5.60911 1.868 5.62632 2.18C5.64353 2.42 5.56608 2.66 5.42838 2.884C4.98948 3.564 4.017 3.82 3.26829 3.436C2.40769 2.972 1.34055 3.252 0.841407 4.044L0.264808 4.988C-0.225732 5.78 0.0496586 6.796 0.901648 7.252C1.63315 7.66 1.89133 8.564 1.46104 9.252C1.31473 9.468 1.15983 9.652 0.91886 9.764C0.626258 9.916 0.368079 10.156 0.230384 10.396C-0.0880367 10.892 -0.0708248 11.516 0.247596 12.036L0.841407 12.996C1.15983 13.508 1.75364 13.828 2.37327 13.828C2.66587 13.828 3.01011 13.748 3.2855 13.588C3.50065 13.452 3.75883 13.404 4.04282 13.404C4.89481 13.404 5.60911 14.068 5.62632 14.86C5.62632 15.78 6.41807 16.5 7.41636 16.5H8.58677C9.57645 16.5 10.3682 15.78 10.3682 14.86C10.394 14.068 11.1083 13.404 11.9603 13.404C12.2357 13.404 12.4939 13.452 12.7176 13.588C12.993 13.748 13.3287 13.828 13.6299 13.828C14.2409 13.828 14.8347 13.508 15.1531 12.996L15.7555 12.036C16.0653 11.5 16.0912 10.892 15.7727 10.396Z" fill="white"/>
</svg>
