<svg width="20" height="22" viewBox="0 0 20 22" fill="none" xmlns="http://www.w3.org/2000/svg">
<path d="M19.4041 12.2623H10.6802L16.4902 18.4872C16.7122 18.7252 17.0777 18.7445 17.306 18.514C18.7288 17.0778 19.7074 15.1418 19.9946 12.9655C20.0438 12.5928 19.7552 12.2623 19.4041 12.2623ZM18.8221 9.70982C18.5192 5.00421 15.0096 1.24397 10.6177 0.919393C10.2824 0.894577 10.0001 1.19749 10.0001 1.55752V10.3716H18.2269C18.5629 10.3716 18.8453 10.0691 18.8221 9.70982ZM8.23537 12.2623V2.91532C8.23537 2.53914 7.92692 2.22992 7.57949 2.2827C3.19824 2.94604 -0.150655 7.04701 0.00522741 11.9618C0.165522 17.0093 4.22177 21.1485 8.93501 21.0851C10.7879 21.0602 12.5001 20.4205 13.9078 19.3507C14.1982 19.1301 14.2174 18.672 13.9655 18.4022L8.23537 12.2623Z" fill="white"/>
</svg>
