<svg width="16" height="17" viewBox="0 0 16 17" fill="none" xmlns="http://www.w3.org/2000/svg">
<g clip-path="url(#clip0_3841_93319)">
<path d="M11.3327 14.5V13.1667C11.3327 12.4594 11.0517 11.7811 10.5516 11.281C10.0515 10.781 9.37326 10.5 8.66602 10.5H3.33268C2.62544 10.5 1.94716 10.781 1.44706 11.281C0.946967 11.7811 0.666016 12.4594 0.666016 13.1667V14.5" stroke="#6D6D6D" stroke-width="2" stroke-linecap="round" stroke-linejoin="round"/>
<path d="M6.00065 7.83333C7.47341 7.83333 8.66732 6.63943 8.66732 5.16667C8.66732 3.69391 7.47341 2.5 6.00065 2.5C4.52789 2.5 3.33398 3.69391 3.33398 5.16667C3.33398 6.63943 4.52789 7.83333 6.00065 7.83333Z" stroke="#6D6D6D" stroke-width="2" stroke-linecap="round" stroke-linejoin="round"/>
<path d="M15.334 14.5002V13.1669C15.3335 12.5761 15.1369 12.0021 14.7749 11.5351C14.4129 11.0682 13.9061 10.7346 13.334 10.5869" stroke="#6D6D6D" stroke-width="2" stroke-linecap="round" stroke-linejoin="round"/>
<path d="M10.666 2.58691C11.2396 2.73378 11.748 3.06738 12.1111 3.53512C12.4742 4.00286 12.6712 4.57813 12.6712 5.17025C12.6712 5.76236 12.4742 6.33763 12.1111 6.80537C11.748 7.27311 11.2396 7.60671 10.666 7.75358" stroke="#6D6D6D" stroke-width="2" stroke-linecap="round" stroke-linejoin="round"/>
</g>
<defs>
<clipPath id="clip0_3841_93319">
<rect width="16" height="16" fill="white" transform="translate(0 0.5)"/>
</clipPath>
</defs>
</svg>
