 <svg width="148" height="96" viewBox="0 0 148 96" fill="none" xmlns="http://www.w3.org/2000/svg">
    <rect width="147.6" height="96" rx="15" fill="#111111" />
    <path
      fill-rule="evenodd"
      clip-rule="evenodd"
      d="M-nan -nanL66.5889 38.045C66.5889 35.0225 64.1719 32.5703 61.1929 32.5703C58.2138 32.5703 55.7969 35.0225 55.7969 38.045C55.7969 41.0675 58.2138 43.5197 61.1929 43.5197C64.1719 43.5197 66.5889 41.0675 66.5889 38.045L-nan -nanZM95.3694 48.9948C92.3214 42.5721 90.8727 36.3778 83.6781 37.133C76.4834 37.8881 71.5371 50.5373 69.2888 51.7322C67.0404 52.9271 69.2888 45.6492 64.7921 47.1699C60.2954 48.6907 57.3203 53.8245 55.7988 56.2944C54.2773 58.7643 39.6108 59.5295 55.7988 61.7691C71.9868 64.0088 88.6134 63.9501 95.3694 61.7691C102.125 59.5882 98.4174 55.4176 95.3694 48.9948Z"
      fill="#7DD78D"
    />
    <path
      d="M67.0889 38.045C67.0889 34.7532 64.4549 32.0703 61.1929 32.0703V33.0703C63.889 33.0703 66.0889 35.2918 66.0889 38.045H67.0889ZM61.1929 32.0703C57.9309 32.0703 55.2969 34.7532 55.2969 38.045H56.2969C56.2969 35.2918 58.4968 33.0703 61.1929 33.0703V32.0703ZM55.2969 38.045C55.2969 41.3368 57.9309 44.0197 61.1929 44.0197V43.0197C58.4968 43.0197 56.2969 40.7982 56.2969 38.045H55.2969ZM61.1929 44.0197C64.4549 44.0197 67.0889 41.3368 67.0889 38.045H66.0889C66.0889 40.7982 63.889 43.0197 61.1929 43.0197V44.0197ZM95.8211 48.7805C95.0553 47.1667 94.4153 45.6229 93.7228 44.1168C93.0427 42.6377 92.3345 41.248 91.483 40.078C90.6286 38.9039 89.6184 37.9346 88.3282 37.314C87.0353 36.6922 85.4998 36.439 83.6259 36.6357L83.7303 37.6302C85.4537 37.4494 86.7973 37.6873 87.8947 38.2152C88.9949 38.7444 89.8864 39.5834 90.6745 40.6664C91.4655 41.7534 92.1406 43.0694 92.8142 44.5345C93.4754 45.9726 94.1595 47.6116 94.9177 49.2092L95.8211 48.7805ZM83.6259 36.6357C81.6875 36.8392 79.9362 37.8393 78.383 39.187C76.8286 40.5357 75.4387 42.262 74.2208 43.9783C73.0051 45.6915 71.9373 47.4298 71.0553 48.7797C70.6103 49.4608 70.2147 50.04 69.865 50.483C69.503 50.9415 69.2349 51.1946 69.0541 51.2907L69.5234 52.1737C69.9047 51.9711 70.2829 51.5675 70.6499 51.1026C71.0292 50.6222 71.4451 50.0112 71.8924 49.3266C72.7951 47.9452 73.8351 46.2499 75.0363 44.557C76.2354 42.8673 77.5716 41.215 79.0384 39.9423C80.5063 38.6686 82.0713 37.8044 83.7303 37.6302L83.6259 36.6357ZM69.0541 51.2907C68.8392 51.4048 68.8132 51.3471 68.859 51.3701C68.8749 51.3781 68.8174 51.3552 68.7407 51.141C68.6694 50.942 68.6138 50.6713 68.5567 50.3303C68.5027 50.0072 68.4461 49.6112 68.3748 49.2356C68.2345 48.4967 68.0046 47.6225 67.4264 47.053C66.7889 46.4251 65.8637 46.2797 64.6319 46.6963L64.9523 47.6436C65.9689 47.2998 66.4489 47.4938 66.7247 47.7655C67.0599 48.0956 67.2516 48.681 67.3923 49.4221C67.4615 49.7865 67.5103 50.1356 67.5704 50.4952C67.6276 50.837 67.6949 51.1866 67.7993 51.4781C67.8982 51.7544 68.0691 52.0922 68.4099 52.2636C68.7807 52.45 69.1762 52.3582 69.5234 52.1737L69.0541 51.2907ZM64.6319 46.6963C62.2586 47.4989 60.3189 49.2414 58.7968 51.0548C57.2723 52.871 56.128 54.8067 55.3731 56.0322L56.2245 56.5567C56.991 55.3123 58.0951 53.4461 59.5627 51.6977C61.0327 49.9465 62.8289 48.3617 64.9523 47.6436L64.6319 46.6963ZM55.3731 56.0322C55.2599 56.2159 54.9735 56.4461 54.4715 56.7012C53.9886 56.9465 53.3809 57.1787 52.7196 57.4035C52.0585 57.6281 51.3678 57.8376 50.7114 58.0447C50.064 58.249 49.4455 58.4523 48.962 58.658C48.7204 58.7608 48.4957 58.8711 48.3115 58.9913C48.1394 59.1036 47.9418 59.2627 47.8337 59.486C47.7748 59.6077 47.7413 59.7512 47.7583 59.9073C47.7751 60.0615 47.8376 60.1938 47.9167 60.3011C48.0645 60.5015 48.2947 60.6485 48.5375 60.7661C49.0353 61.0074 49.8359 61.2404 50.986 61.4815C52.1473 61.725 53.7014 61.9837 55.7302 62.2644L55.8673 61.2738C53.8492 60.9946 52.3205 60.7395 51.1912 60.5028C50.0509 60.2637 49.3534 60.0503 48.9735 59.8662C48.8819 59.8218 48.8179 59.7834 48.7749 59.7525C48.731 59.721 48.7193 59.7046 48.7216 59.7077C48.7257 59.7133 48.7465 59.7447 48.7524 59.7988C48.7585 59.8548 48.7448 59.899 48.7338 59.9218C48.7213 59.9475 48.7316 59.9112 48.8579 59.8288C48.9722 59.7542 49.1367 59.6704 49.3535 59.5782C49.7866 59.3939 50.3615 59.2037 51.0123 58.9984C51.654 58.7959 52.3664 58.5797 53.0413 58.3503C53.716 58.121 54.3773 57.8707 54.9245 57.5927C55.4525 57.3244 55.9572 56.9905 56.2245 56.5567L55.3731 56.0322ZM55.7302 62.2644C63.8461 63.3873 72.0728 63.9342 79.1216 63.9269C86.1532 63.9195 92.0658 63.361 95.523 62.2449L95.2158 61.2933C91.9171 62.3582 86.1383 62.9195 79.1206 62.9269C72.12 62.9342 63.9394 62.3906 55.8673 61.2738L55.7302 62.2644ZM95.523 62.2449C97.2551 61.6858 98.4127 60.9709 99.0587 60.0417C99.7195 59.0912 99.7842 58.0075 99.5343 56.8658C99.2877 55.7386 98.7225 54.4969 98.0517 53.1683C97.3696 51.8175 96.5809 50.3815 95.8211 48.7805L94.9177 49.2092C95.6819 50.8195 96.4997 52.3134 97.159 53.6191C97.8295 54.9471 98.3406 56.0886 98.5574 57.0795C98.7711 58.0559 98.6865 58.8251 98.2377 59.4708C97.7741 60.1377 96.8617 60.762 95.2158 61.2933L95.523 62.2449Z"
      fill="#325638"
    />
  </svg>